<svg width="30" height="30" viewBox="0 0 30 30" fill="none" xmlns="http://www.w3.org/2000/svg">
<g id="dashicons:admin-customizer">
<path id="Vector" d="M2.50496 5.35496C2.50496 5.35496 2.09996 4.15496 2.96996 3.31496C3.76496 2.53496 4.79996 2.95496 4.79996 2.95496C5.71496 3.40496 13.44 8.15996 16.305 11.31C17.595 12.75 19.395 16.995 17.94 18.54C16.56 20.01 12 18.285 10.755 17.04C7.66496 13.95 2.93996 6.28496 2.50496 5.35496ZM27.9 26.475C24.345 24.135 25.71 21.36 23.055 19.515C21.66 18.54 19.725 18.585 18.435 19.95C17.49 20.955 17.235 23.805 18.675 25.14C21.03 27.315 24.675 27.465 27.9 26.475Z" fill="white"/>
</g>
</svg>
