<svg width="66" height="66" viewBox="0 0 66 66" fill="none" xmlns="http://www.w3.org/2000/svg">
<g id="icon">
<circle id="Ellipse 1" cx="33" cy="33" r="33" fill="#007BFF" fill-opacity="0.46"/>
<path id="Vector" d="M41.0107 38.813C41.2645 38.8125 41.516 38.8622 41.7506 38.9591C41.9851 39.0561 42.1983 39.1983 42.3778 39.3778C42.5573 39.5573 42.6996 39.7705 42.7965 40.0051C42.8934 40.2396 42.9431 40.4911 42.9426 40.7449L42.9426 42.095C42.9426 44.6533 41.9264 47.1068 40.1174 48.9158C38.3084 50.7248 35.8549 51.7411 33.2966 51.7411C30.7383 51.7411 28.2848 50.7248 26.4758 48.9158C24.6668 47.1068 23.6505 44.6533 23.6505 42.095L23.6516 36.614C23.6486 34.1528 24.5867 31.7837 26.2738 29.9918C27.9609 28.1999 30.2693 27.1209 32.7261 26.9758C32.9798 26.9609 33.234 26.9961 33.4741 27.0794C33.7142 27.1627 33.9355 27.2925 34.1255 27.4613C34.3154 27.6302 34.4702 27.8348 34.5811 28.0635C34.692 28.2921 34.7568 28.5404 34.7717 28.7941C34.7866 29.0478 34.7514 29.302 34.6681 29.5421C34.5848 29.7822 34.455 30.0036 34.2862 30.1935C34.1173 30.3835 33.9127 30.5383 33.684 30.6492C33.4554 30.76 33.2071 30.8248 32.9534 30.8397C31.4804 30.927 30.0964 31.5738 29.0845 32.6478C28.0726 33.7218 27.5093 35.1418 27.5098 36.6174L27.5076 42.0927C27.5076 43.6274 28.1172 45.0993 29.2025 46.1845C30.2877 47.2698 31.7596 47.8794 33.2943 47.8794C34.829 47.8794 36.3009 47.2698 37.3861 46.1845C38.4714 45.0993 39.081 43.6274 39.081 42.0927L39.081 40.7426C39.0809 40.4892 39.1307 40.2382 39.2276 40.004C39.3246 39.7698 39.4667 39.557 39.6459 39.3778C39.8251 39.1986 40.0379 39.0565 40.2721 38.9596C40.5063 38.8626 40.7573 38.8128 41.0107 38.813ZM33.292 14.2568C30.7347 14.2599 28.2829 15.2771 26.4746 17.0854C24.6662 18.8938 23.649 21.3455 23.646 23.9029L23.646 25.253C23.646 25.7654 23.8495 26.2568 24.2118 26.6191C24.5741 26.9814 25.0655 27.1849 25.5779 27.1849C26.0903 27.1849 26.5817 26.9814 26.944 26.6191C27.3063 26.2568 27.5098 25.7654 27.5098 25.253L27.5098 23.9029C27.5098 22.3682 28.1195 20.8963 29.2047 19.8111C30.29 18.7259 31.7618 18.1162 33.2966 18.1162C34.8313 18.1162 36.3032 18.7259 37.3884 19.8111C38.4736 20.8963 39.0833 22.3682 39.0833 23.9029L39.0845 29.3839C39.084 30.8599 38.5195 32.2798 37.5065 33.3532C36.4936 34.4266 35.1087 35.0723 33.6352 35.1582C33.3815 35.1731 33.1332 35.2378 32.9046 35.3487C32.6759 35.4596 32.4713 35.6144 32.3024 35.8044C32.1336 35.9943 32.0038 36.2157 31.9205 36.4558C31.8372 36.6959 31.802 36.9501 31.8169 37.2038C31.8319 37.4575 31.8966 37.7057 32.0075 37.9344C32.1184 38.1631 32.2732 38.3677 32.4632 38.5366C32.6531 38.7054 32.8744 38.8352 33.1146 38.9185C33.3547 39.0018 33.6088 39.037 33.8625 39.0221C36.3182 38.8776 38.6258 37.8001 40.3131 36.0101C42.0005 34.2201 42.9399 31.853 42.9392 29.393L42.9404 23.912C42.9392 21.3535 41.9227 18.8999 40.1142 17.0901C38.3057 15.2803 35.8529 14.2621 33.2943 14.2591L33.292 14.2568Z" fill="white"/>
</g>
</svg>
